<svg data-name="logo" xmlns="http://www.w3.org/2000/svg" viewBox="0 0 512 512"><circle cx="256" cy="256" r="256"/><path d="M263.45 26.13c-129-3.38-238 101.27-237.4 231 .53 121.57 97.44 224.24 220 228.78V88.49a138 138 0 00-43.22 8.67V238H167.1V113.64c-18 11.33-32.32 24.32-43.58 39.48v206.63c12.16 15.14 25.92 28.32 44.16 39.26V274.64h35.18v149.44c-56.12-12.89-131.5-80.45-123.4-184.32 6.86-88.13 84.24-159.92 175.4-161 90.75-1.06 170.05 70.54 177.66 160.83C441.16 342.28 367.61 410 309.4 424.17V273.8h43.84l8.9-17.72-9.39-18.08H308.9c0-20.22.07-39.46 0-58.7 0-4.63 1-8.44 7-11.81h82.92c-11.56-18.12-24.36-32.5-40.06-44.13h-52.79c-27.3 0-40.74 13.39-40.74 40.63v311.49c0 3.44-1.1 7.11 1.06 10.34C379 482.29 483.5 389.73 485.91 260.25c2.35-126.41-99.71-230.9-222.46-234.12zM71.78 260H34.25v-8.4h37.53zm188.4-189h-8.36V33.44h8.36zm217.57 189h-37.53v-8.4h37.53z" fill="#fff"/></svg>